<svg xmlns="http://www.w3.org/2000/svg" width="595" height="430"><defs><clipPath id="clip-path"><path id="Rectangle_15" data-name="Rectangle 15" transform="translate(-224.49 -83.84)" fill="none" d="M0 0h595v430H0z"/></clipPath></defs><g id="logo" transform="translate(224.49 83.84)" clip-path="url(#clip-path)"><path id="Path_131" data-name="Path 131" d="M416.805 20.62L115.937 237.582 53.058 160.91 8.73 227.4l41.3 127.8h349.12l142.243-212.522z" transform="translate(-205.137 -47.263)" fill="#7ab800"/><path id="Path_132" data-name="Path 132" d="M397.067 55.5L67.84 267.947h186.984z" transform="translate(-60.812 39.915)" fill="#5c8f21"/><path id="Path_133" data-name="Path 133" d="M212.214 207.487H50.01L8.71 79.69z" transform="translate(-205.186 100.376)" fill="#69a617"/><path id="Path_134" data-name="Path 134" d="M340.748 20.62L39.88 237.582l96.366 117.474z" transform="translate(-129.08 -47.263)" fill="#69a617"/><path id="Path_135" data-name="Path 135" d="M192.246 71.278A35.707 35.707 0 00164.307 35.8a35.11 35.11 0 00-39.685 20.919 36.182 36.182 0 0012.413 43.663 34.8 34.8 0 0044.541-3.837 36.2 36.2 0 0010.669-25.265" transform="translate(70.841 -11.277)" fill="#fff"/><path id="Path_136" data-name="Path 136" d="M162.152 58.072a17.957 17.957 0 00-10.923-16.595 17.444 17.444 0 00-19.254 3.939 18.173 18.173 0 00-3.761 19.6 17.674 17.674 0 0034.041-6.943" transform="translate(83.245 1.475)"/><path id="Rectangle_14" data-name="Rectangle 14" transform="translate(-1399.227 -456.507)" fill="none" d="M0 0h2897.483v2083.112H0z"/></g></svg>