<svg xmlns="http://www.w3.org/2000/svg" id="Layer_1" x="0" y="0" version="1.1" viewBox="0 0 535 335.7" xml:space="preserve">
  <defs/>
  <style>
    .st2{fill:#69a617}.st4{fill:none}
  </style>
  <path fill="#7ab800" d="M185.7-82.6l-300.9 217-62.9-76.7-44.3 66.5 41.3 127.8H168L310.3 39.4l-124.6-122z" transform="translate(224.49 83.84)"/>
  <path fill="#5c8f21" d="M310.3 39.4L-19 251.9h187L310.3 39.4z" transform="translate(224.49 83.84)"/>
  <path d="M-19 251.9h-162.2l-41.3-127.8L-19 251.9zM185.7-82.6l-300.9 217 96.4 117.5L185.7-82.6z" class="st2" transform="translate(224.49 83.84)"/>
  <path fill="#fff" d="M237.1 4c.3-17-11.4-31.8-27.9-35.5-16.5-3.5-33.2 5.3-39.7 20.9-6.6 15.7-1.5 33.8 12.4 43.7 13.8 9.7 32.6 8.1 44.5-3.8 6.7-6.7 10.6-15.8 10.7-25.3" transform="translate(224.49 83.84)"/>
  <path d="M219.4 3.5c0-7.2-4.3-13.8-10.9-16.6-6.6-2.8-14.3-1.2-19.3 3.9-5 5.2-6.5 12.9-3.8 19.6 3.7 9 14 13.4 23 9.7 6.8-2.7 11.1-9.4 11-16.6" transform="translate(224.49 83.84)"/>
  <path d="M-1425.2-512.5h2897.5v2083.1h-2897.5z" class="st4" transform="translate(224.49 83.84)"/>
  <path d="M802.8 151h534v334.7h-534z" class="st4" transform="translate(-801.789 -149.986)"/>
</svg>
