<svg xmlns="http://www.w3.org/2000/svg" width="166.154" height="120"><defs><clipPath id="clip-path"><path id="Rectangle_48" data-name="Rectangle 48" transform="translate(-224.49 -83.84)" fill="none" d="M0 0h166.154v120H0z"/></clipPath></defs><g id="logo" transform="translate(224.49 83.84)" clip-path="url(#clip-path)"><path id="Path_856" data-name="Path 856" d="M122.685 20.62L38.668 81.167l-17.559-21.4L8.73 78.326l11.533 35.664h97.492l39.721-59.307z" transform="translate(-225.378 -88.498)" fill="#7ab800"/><path id="Path_857" data-name="Path 857" d="M159.777 55.5L67.84 114.788h52.215z" transform="translate(-227.679 -89.315)" fill="#5c8f21"/><path id="Path_858" data-name="Path 858" d="M65.539 115.354h-45.3L8.71 79.69z" transform="translate(-225.377 -89.882)" fill="#69a617"/><path id="Path_859" data-name="Path 859" d="M123.9 20.62L39.88 81.167l26.91 32.783z" transform="translate(-226.59 -88.498)" fill="#69a617"/><path id="Path_860" data-name="Path 860" d="M141.443 45.137a9.966 9.966 0 00-7.8-9.9 9.806 9.806 0 00-11.082 5.838 10.093 10.093 0 003.466 12.185 9.724 9.724 0 0012.438-1.071 10.1 10.1 0 002.979-7.051" transform="translate(-229.777 -88.835)" fill="#fff"/><path id="Path_861" data-name="Path 861" d="M136.7 45.13a5.011 5.011 0 00-3.05-4.631 4.874 4.874 0 00-5.377 1.1 5.069 5.069 0 00-1.05 5.47 4.936 4.936 0 009.506-1.938" transform="translate(-229.975 -88.955)"/><path id="Rectangle_47" data-name="Rectangle 47" transform="translate(-552.535 -187.84)" fill="none" d="M0 0h809.122v581.333H0z"/></g></svg>