<svg xmlns="http://www.w3.org/2000/svg" width="90" height="65"><defs><clipPath id="clip-path"><path id="Rectangle_4" data-name="Rectangle 4" transform="translate(-224.49 -83.84)" fill="none" d="M0 0h90v65H0z"/></clipPath></defs><g id="logo" transform="translate(224.49 83.84)" clip-path="url(#clip-path)"><path id="Path_24" data-name="Path 24" d="M70.456 20.62l-45.509 32.8-9.511-11.59L8.73 51.877 14.977 71.2h52.808L89.3 39.071z" transform="translate(-228.972 -95.814)" fill="#7ab800"/><path id="Path_25" data-name="Path 25" d="M117.639 55.5L67.84 87.614h28.283z" transform="translate(-257.31 -112.243)" fill="#5c8f21"/><path id="Path_26" data-name="Path 26" d="M39.492 99.008H14.957L8.71 79.69z" transform="translate(-228.963 -123.637)" fill="#69a617"/><path id="Path_27" data-name="Path 27" d="M85.389 20.62L39.88 53.417l14.576 17.757z" transform="translate(-243.906 -95.814)" fill="#69a617"/><path id="Path_28" data-name="Path 28" d="M132.421 40.5a5.4 5.4 0 00-4.226-5.363 5.311 5.311 0 00-6 3.162 5.467 5.467 0 001.878 6.6 5.267 5.267 0 006.737-.58 5.47 5.47 0 001.614-3.819" transform="translate(-283.16 -102.596)" fill="#fff"/><path id="Path_29" data-name="Path 29" d="M132.181 42.834a2.714 2.714 0 00-1.652-2.509 2.64 2.64 0 00-2.912.6 2.746 2.746 0 00-.569 2.963 2.674 2.674 0 005.149-1.05" transform="translate(-285.596 -104.999)"/><path id="Rectangle_3" data-name="Rectangle 3" transform="translate(-402.181 -140.173)" fill="none" d="M0 0h438.275v314.889H0z"/></g></svg>