<svg xmlns="http://www.w3.org/2000/svg" width="255.798" height="423.014"><g id="Group_7" data-name="Group 7" transform="translate(-1646.421 -1930.17)" fill="#39c"><path id="Path_49" data-name="Path 49" d="M1073.284 930.961l-19.145 11.224c-14.157-24.639-28.01-48.672-42.1-73.21l18.943-11.325c14.057 24.336 27.842 48.368 42.302 73.311z" transform="translate(634.381 1072.52)"/><path id="Path_50" data-name="Path 50" d="M1089.07 958.18c14.123 24.471 27.5 47.728 41.864 72.637l-18.842 11.527-42.3-73.311z" transform="translate(771.285 1310.84)"/><path id="Path_51" data-name="Path 51" d="M1092.493 964.516l-19.179 11.157-41.964-72.637 18.606-11.966z" transform="translate(680.159 1151.746)"/><path id="Path_52" data-name="Path 52" d="M1111.7 998.04l-19.112 10.921-42-72.805 18.774-11.595c14.26 24.807 28.046 48.671 42.338 73.479z" transform="translate(725.769 1231.139)"/></g></svg>