<svg xmlns="http://www.w3.org/2000/svg" width="65" height="65" viewBox="0 0 65 65">
  <g id="Group_3" data-name="Group 3" transform="translate(-113 -981)">
    <path id="facebook" d="M11.178,6.188c.036-.039.2-.164.868-.164h2.173A1.25,1.25,0,0,0,15.5,4.81V1.218A1.25,1.25,0,0,0,14.22,0L10.993,0A6.851,6.851,0,0,0,6.1,1.8,6.4,6.4,0,0,0,4.251,6.525V8.462H1.782A1.25,1.25,0,0,0,.5,9.675v3.869a1.25,1.25,0,0,0,1.282,1.213H4.251v9.03A1.25,1.25,0,0,0,5.533,25H9.765a1.25,1.25,0,0,0,1.282-1.213v-9.03h3.018a1.25,1.25,0,0,0,1.282-1.213l0-3.869a1.208,1.208,0,0,0-.66-1.061,1.362,1.362,0,0,0-.634-.152H11.047V6.931C11.047,6.433,11.118,6.252,11.178,6.188Zm0,0" transform="translate(136.647 1000.015)"/>
    <rect id="Rectangle_16" data-name="Rectangle 16" width="65" height="65" transform="translate(113 981)" fill="none"/>
  </g>
</svg>
