<svg xmlns="http://www.w3.org/2000/svg" width="65" height="65"><g id="Group_3" data-name="Group 3" transform="translate(-113 -981)"><path id="facebook" d="M26.346 15.834c.087-.1.5-.421 2.1-.421h5.26a3.106 3.106 0 003.1-3.1V3.116a3.107 3.107 0 00-3.1-3.1L25.9 0a16.078 16.078 0 00-11.857 4.6c-2.92 3-4.463 7.179-4.463 12.1v4.958H3.6a3.106 3.106 0 00-3.1 3.1v9.9a3.106 3.106 0 003.1 3.1h5.98v23.109a3.106 3.106 0 003.1 3.1h10.247a3.106 3.106 0 003.1-3.1V37.76h7.306a3.106 3.106 0 003.1-3.1v-9.9a3.113 3.113 0 00-1.6-2.714 3.153 3.153 0 00-1.535-.389H26.03v-3.921c0-1.277.17-1.736.316-1.902zm0 0" transform="translate(126.647 981.015)"/><path id="Rectangle_16" data-name="Rectangle 16" transform="translate(113 981)" fill="none" d="M0 0h65v65H0z"/></g></svg>