<svg xmlns="http://www.w3.org/2000/svg" width="65" height="65" viewBox="0 0 65 65">
  <g id="Group_17" data-name="Group 17" transform="translate(-410 -2947)">
    <g id="vimeo-icon" transform="translate(435.056 2970.063)">
      <path id="Path_2" data-name="Path 2" d="M12.816,2.018Q14.992,2.089,15,5.086c0,.131,0,.268-.009.408q-.1,2.542-3.054,6.924-3.053,4.591-5.181,4.6-1.323,0-2.2-2.812l-.617-2.57-.61-2.566Q2.651,6.281,1.882,6.283A4.488,4.488,0,0,0,.712,7.1L0,6.05,1.105,4.912,2.192,3.785A5.147,5.147,0,0,1,4.414,2.217a1.555,1.555,0,0,1,.2-.012q1.564,0,1.949,2.787.214,1.59.356,2.584t.232,1.389q.517,2.637,1.115,2.648.46,0,1.416-1.719a7.8,7.8,0,0,0,1-2.616,2.731,2.731,0,0,0,.019-.323q0-1.152-1.02-1.151a2.727,2.727,0,0,0-1.106.267Q9.64,2.029,12.647,2.018Z" transform="translate(0 0)"/>
    </g>
    <g id="Group_16" data-name="Group 16" transform="translate(297 1966)">
      <rect id="Rectangle_16" data-name="Rectangle 16" width="65" height="65" transform="translate(113 981)" fill="none"/>
    </g>
  </g>
</svg>
