<svg xmlns="http://www.w3.org/2000/svg" width="65" height="65"><g id="vimeo-icon" transform="translate(0 -2.018)"><path id="Path_2" data-name="Path 2" d="M55.534 2.018q9.433.307 9.466 13.293c0 .568-.016 1.16-.041 1.767q-.416 11.014-13.236 30-13.23 19.897-22.449 19.94-5.734 0-9.544-12.183L17.055 43.7l-2.644-11.12Q11.488 20.492 8.157 20.5q-.73 0-5.07 3.519L0 19.491l4.789-4.934L9.5 9.674q6.328-6.287 9.628-6.793a6.738 6.738 0 01.885-.05q6.777 0 8.447 12.079.926 6.89 1.543 11.2t1.007 6.02q2.24 11.426 4.833 11.476 1.992 0 6.136-7.447 4.05-7.65 4.34-11.337a11.833 11.833 0 00.081-1.4q0-4.994-4.421-4.988a11.818 11.818 0 00-4.792 1.156Q41.771 2.066 54.8 2.018z"/></g></svg>