<svg xmlns="http://www.w3.org/2000/svg" width="65" height="65"><g id="youtube-logo" transform="translate(-.003)"><g id="Group_2" data-name="Group 2" transform="translate(.003)"><path id="Path_9" data-name="Path 9" d="M61.427 3.576A11.737 11.737 0 0052.816 0H12.191a11.741 11.741 0 00-8.612 3.576A11.74 11.74 0 000 12.187v40.625a11.741 11.741 0 003.576 8.612A11.74 11.74 0 0012.191 65h40.625A12.209 12.209 0 0065 52.812V12.187a11.741 11.741 0 00-3.573-8.611zM38.386 9.394h2.835V20.9a6.446 6.446 0 00.042 1.1q.043.677.678.677.846 0 1.777-1.311V9.394h2.835v15.657h-2.836v-1.693a4.728 4.728 0 01-3.258 1.9 1.782 1.782 0 01-1.82-1.142 7.89 7.89 0 01-.253-2.328V9.394zm-10.707 5.078a6.27 6.27 0 01.889-3.681 3.8 3.8 0 013.3-1.608 3.938 3.938 0 013.3 1.608 6.267 6.267 0 01.889 3.681v5.5a6.033 6.033 0 01-.889 3.682 3.935 3.935 0 01-3.3 1.608 3.8 3.8 0 01-3.3-1.608 6.271 6.271 0 01-.889-3.682zM20.062 4.02l2.238 8.252 2.163-8.252h3.174l-3.809 12.526v8.506H20.7v-8.506a58.135 58.135 0 00-1.95-6.686l-.973-2.92-1.016-2.92h3.3zM54.933 55.1a5.949 5.949 0 01-1.8 3.089 5.551 5.551 0 01-3.194 1.482q-5.8.634-17.435.634t-17.435-.634a5.558 5.558 0 01-3.195-1.482 5.954 5.954 0 01-1.8-3.089 51.882 51.882 0 01-.846-11 52.974 52.974 0 01.846-11 5.85 5.85 0 011.8-3.111 5.647 5.647 0 013.237-1.46 173.276 173.276 0 0117.389-.643 174.046 174.046 0 0117.435.635 5.71 5.71 0 013.215 1.46 5.786 5.786 0 011.82 3.111 54.206 54.206 0 01.8 11 51.889 51.889 0 01-.837 11.008z" transform="translate(-.003)"/><path id="Path_10" data-name="Path 10" d="M85.651 227.656h3.3v17.908h3.133v-17.908h3.387v-2.964h-9.82z" transform="translate(-72.957 -191.395)"/><path id="Path_11" data-name="Path 11" d="M159.995 272.514q-.931 1.311-1.778 1.312-.593 0-.635-.635a6.375 6.375 0 01-.043-1.1v-11.432h-2.794v12.277a7.194 7.194 0 00.254 2.286 1.664 1.664 0 001.778 1.185 4.5 4.5 0 003.218-1.905v1.698h2.836v-15.54h-2.836v11.854z" transform="translate(-131.81 -222.03)"/><path id="Path_12" data-name="Path 12" d="M231.273 229.814a3.762 3.762 0 00-2.878 1.694v-6.816h-2.837v20.872h2.837v-1.524a3.833 3.833 0 002.878 1.735 2.168 2.168 0 002.243-1.775 11.03 11.03 0 00.3-3.09v-6.181a11.291 11.291 0 00-.3-3.133 2.168 2.168 0 00-2.243-1.782zm-.254 11.3q0 2.074-1.228 2.074a1.988 1.988 0 01-1.4-.678v-9.483a1.991 1.991 0 011.4-.677q1.229 0 1.228 2.116z" transform="translate(-192.128 -191.395)"/><path id="Path_13" data-name="Path 13" d="M301.614 270.515c0 .3-.007.529-.02.7s-.021.268-.021.3a1.226 1.226 0 01-1.27 1.1q-1.44 0-1.44-2.159V267.7h5.631v-3.218a6.065 6.065 0 00-.889-3.641 3.8 3.8 0 00-3.3-1.609 4.026 4.026 0 00-3.387 1.609 6.184 6.184 0 00-.846 3.641v5.462a5.954 5.954 0 00.889 3.642 4.07 4.07 0 003.43 1.609 3.821 3.821 0 003.387-1.694 3.983 3.983 0 00.635-1.693 14.262 14.262 0 00.084-1.821v-.38h-2.879v.91zm-2.751-6.584q0-2.159 1.4-2.159t1.4 2.159v1.44h-2.794z" transform="translate(-252.187 -220.813)"/><path id="Path_14" data-name="Path 14" d="M207.207 90.045q1.355 0 1.355-2.159v-6.6q0-2.2-1.355-2.2t-1.355 2.2v6.6q0 2.159 1.355 2.159z" transform="translate(-175.341 -67.36)"/></g></g></svg>