<svg xmlns="http://www.w3.org/2000/svg" width="65" height="65" viewBox="0 0 65 65">
  <g id="Group_19" data-name="Group 19" transform="translate(-541 -2958)">
    <g id="youtube-logo" transform="translate(650.359 2984.365)">
      <g id="Group_2" data-name="Group 2" transform="translate(-85.997 -3)">
        <path id="Path_9" data-name="Path 9" d="M16.8.978A3.21,3.21,0,0,0,14.448,0H3.336A3.211,3.211,0,0,0,.981.978,3.211,3.211,0,0,0,0,3.333V14.444A3.211,3.211,0,0,0,.981,16.8a3.211,3.211,0,0,0,2.355.978H14.448a3.339,3.339,0,0,0,3.333-3.333V3.333A3.211,3.211,0,0,0,16.8.978ZM10.5,2.569h.776V5.717a1.763,1.763,0,0,0,.011.3q.012.185.185.185.231,0,.486-.359V2.569h.776V6.852h-.776V6.388a1.293,1.293,0,0,1-.891.521.487.487,0,0,1-.5-.312A2.158,2.158,0,0,1,10.5,5.96V2.569ZM7.573,3.958a1.715,1.715,0,0,1,.243-1.007,1.039,1.039,0,0,1,.9-.44,1.077,1.077,0,0,1,.9.44,1.714,1.714,0,0,1,.243,1.007v1.5A1.65,1.65,0,0,1,9.621,6.47a1.076,1.076,0,0,1-.9.44,1.039,1.039,0,0,1-.9-.44,1.715,1.715,0,0,1-.243-1.007ZM5.489,1.1,6.1,3.356,6.693,1.1h.868L6.519,4.525h0V6.852H5.663V4.525A15.9,15.9,0,0,0,5.13,2.7l-.266-.8-.278-.8h.9Zm9.537,13.97a1.627,1.627,0,0,1-.492.845,1.518,1.518,0,0,1-.874.405q-1.585.173-4.769.174T4.124,16.32a1.52,1.52,0,0,1-.874-.405,1.628,1.628,0,0,1-.492-.845,14.19,14.19,0,0,1-.231-3.009,14.489,14.489,0,0,1,.231-3.009A1.6,1.6,0,0,1,3.25,8.2a1.544,1.544,0,0,1,.885-.4,47.392,47.392,0,0,1,4.757-.174,47.6,47.6,0,0,1,4.769.174,1.562,1.562,0,0,1,.879.4,1.583,1.583,0,0,1,.5.851,14.825,14.825,0,0,1,.22,3.009A14.192,14.192,0,0,1,15.026,15.069Z" transform="translate(-0.003)"/>
        <path id="Path_10" data-name="Path 10" d="M85.651,225.5h.9v4.9h.857v-4.9h.926v-.811H85.651Z" transform="translate(-82.179 -215.585)"/>
        <path id="Path_11" data-name="Path 11" d="M156.181,263.9q-.255.359-.486.359-.162,0-.174-.174a1.743,1.743,0,0,1-.012-.3v-3.126h-.764v3.358a1.968,1.968,0,0,0,.07.625.455.455,0,0,0,.486.324,1.231,1.231,0,0,0,.88-.521v.463h.776v-4.249h-.776Z" transform="translate(-148.472 -250.094)"/>
        <path id="Path_12" data-name="Path 12" d="M227.121,226.093a1.029,1.029,0,0,0-.787.463v-1.864h-.776V230.4h.776v-.417a1.049,1.049,0,0,0,.787.475.593.593,0,0,0,.613-.486,3.017,3.017,0,0,0,.081-.845v-1.69a3.088,3.088,0,0,0-.081-.857A.593.593,0,0,0,227.121,226.093Zm-.07,3.092q0,.567-.336.567a.544.544,0,0,1-.382-.185v-2.594a.544.544,0,0,1,.382-.185q.336,0,.336.579Z" transform="translate(-216.415 -215.585)"/>
        <path id="Path_13" data-name="Path 13" d="M297.585,262.317c0,.081,0,.145-.006.191s-.006.073-.006.081a.335.335,0,0,1-.347.3q-.394,0-.394-.59v-.753h1.54v-.88a1.659,1.659,0,0,0-.243-1,1.039,1.039,0,0,0-.9-.44,1.1,1.1,0,0,0-.926.44,1.692,1.692,0,0,0-.232,1v1.494a1.628,1.628,0,0,0,.243,1,1.113,1.113,0,0,0,.938.44,1.045,1.045,0,0,0,.926-.463,1.089,1.089,0,0,0,.174-.463,3.894,3.894,0,0,0,.023-.5v-.1h-.787v.249h0Zm-.752-1.8q0-.59.382-.59t.382.59v.394h-.764Z" transform="translate(-284.066 -248.724)"/>
        <path id="Path_14" data-name="Path 14" d="M206.222,82.079q.371,0,.37-.59V79.682q0-.6-.37-.6t-.37.6v1.806Q205.852,82.079,206.222,82.079Z" transform="translate(-197.507 -75.874)"/>
      </g>
    </g>
    <g id="Group_18" data-name="Group 18" transform="translate(131 11)">
      <g id="Group_16" data-name="Group 16" transform="translate(297 1966)">
        <rect id="Rectangle_16" data-name="Rectangle 16" width="65" height="65" transform="translate(113 981)" fill="none"/>
      </g>
    </g>
  </g>
</svg>
